<?xml version="1.0" encoding="UTF-8"?>
<svg version="1.1" xmlns="http://www.w3.org/2000/svg" width="500" height="500">
<path d="M0 0 C1.19892883 -0.01022186 2.39785767 -0.02044373 3.63311768 -0.03097534 C6.91436811 -0.05398952 10.19499092 -0.05891836 13.47630072 -0.05384874 C16.21973169 -0.05170558 18.96307002 -0.06148569 21.7064811 -0.07105958 C28.1816702 -0.09323381 34.65662726 -0.09413448 41.13183594 -0.08203125 C47.80145556 -0.06995583 54.47023091 -0.09456475 61.13970649 -0.13717139 C66.87495563 -0.17245632 72.60993668 -0.18439783 78.3452903 -0.1778959 C81.76678247 -0.17427752 85.18767258 -0.17946628 88.60906601 -0.20732498 C92.4275378 -0.23201203 96.24405921 -0.21849856 100.0625 -0.1953125 C101.18896942 -0.21059998 102.31543884 -0.22588745 103.4760437 -0.24163818 C109.73564501 -0.15766645 113.40363523 0.53340258 117.95706367 4.97002602 C120.9004504 8.83221969 120.2882308 13.33256423 120.25830078 17.93603516 C120.25617836 19.16154839 120.25617836 19.16154839 120.25401306 20.41181946 C120.24841747 23.02018908 120.23586582 25.62847274 120.22314453 28.23681641 C120.21812896 30.00569537 120.21356615 31.77457569 120.20947266 33.54345703 C120.19844949 37.87877659 120.18118791 42.21403193 120.16064453 46.54931641 C121.0574292 46.54265457 121.95421387 46.53599274 122.87817383 46.52912903 C131.35215206 46.46888128 139.82605778 46.42327269 148.30020142 46.39387989 C152.65628233 46.37826047 157.01218545 46.35709072 161.36816406 46.32299805 C165.57624038 46.29027111 169.78414627 46.27243541 173.99234009 46.26468468 C175.59342123 46.25916501 177.19449362 46.24838662 178.79550171 46.23212624 C198.60187393 46.03906608 198.60187393 46.03906608 206.49951172 53.71948242 C213.67809434 61.62710687 212.827527 72.10233588 212.91064453 82.11181641 C212.93854515 83.81699793 212.96778417 85.52215803 212.99829102 87.22729492 C213.30262359 105.9981749 213.25822265 124.77678832 213.16064453 143.54931641 C212.02449707 143.8709375 210.88834961 144.19255859 209.71777344 144.52392578 C188.12724452 150.64075452 166.55858127 156.78312239 145.16064453 163.54931641 C156.33546268 174.16053503 168.11248116 183.94843622 180.16064453 193.54931641 C178.48203048 197.56042323 175.73313037 200.61960648 172.91064453 203.86181641 C172.38124268 204.47355713 171.85184082 205.08529785 171.30639648 205.71557617 C158.24186128 220.70557184 144.54980344 235.90726905 129.16064453 248.54931641 C128.6242334 248.99952148 128.08782227 249.44972656 127.53515625 249.91357422 C113.2846481 261.86998787 98.30936518 272.32024958 82.16064453 281.54931641 C81.56993164 281.8905957 80.97921875 282.231875 80.37060547 282.58349609 C40.35104236 305.52394779 -9.51915418 314.55355759 -54.83935547 304.54931641 C-56.20108887 304.25130127 -56.20108887 304.25130127 -57.59033203 303.94726562 C-76.14512163 299.75027408 -94.05919094 293.55910976 -110.83935547 284.54931641 C-111.68956262 271.68785538 -111.99815409 258.885507 -112.01635742 245.99804688 C-112.02264184 244.00839627 -112.02929029 242.01874679 -112.03627014 240.02909851 C-112.05704091 233.57490822 -112.06763227 227.12071834 -112.07763672 220.66650391 C-112.08169146 218.43103143 -112.08580857 216.19555907 -112.0899868 213.96008682 C-112.10896221 203.47256382 -112.12322083 192.9850476 -112.13159877 182.49751079 C-112.14140683 170.424641 -112.16785086 158.35195278 -112.20809966 146.27914703 C-112.23824557 136.9139792 -112.25306534 127.54886363 -112.25637978 118.18364823 C-112.25872761 112.6022676 -112.26765741 107.02108276 -112.29284096 101.43975449 C-112.31610648 96.20120404 -112.32036101 90.96297875 -112.31007957 85.72439003 C-112.30958411 83.80555578 -112.31590779 81.88670551 -112.32963562 79.9679203 C-112.34735783 77.34385591 -112.3402478 74.72095914 -112.32710266 72.09689331 C-112.33807191 71.34261169 -112.34904115 70.58833008 -112.3603428 69.81119144 C-112.28419637 63.49331822 -110.22535467 58.4409202 -106.19873047 53.56103516 C-105.66763672 53.12404297 -105.13654297 52.68705078 -104.58935547 52.23681641 C-104.06857422 51.78693359 -103.54779297 51.33705078 -103.01123047 50.87353516 C-94.41115198 45.62996212 -85.80126854 46.15771017 -76.08935547 46.25634766 C-74.46411533 46.26195062 -72.83887009 46.2662174 -71.21362305 46.26921082 C-66.95894103 46.28060457 -62.70457165 46.31002385 -58.45001221 46.34332275 C-54.09936755 46.37414232 -49.74867183 46.38774143 -45.39794922 46.40283203 C-36.87827532 46.43489948 -28.35885441 46.48602865 -19.83935547 46.54931641 C-19.85506592 45.45466064 -19.87077637 44.36000488 -19.88696289 43.23217773 C-19.94137657 39.1601501 -19.97574702 35.08815444 -20.00415039 31.01586914 C-20.019211 29.25539745 -20.03966373 27.49496311 -20.06567383 25.73461914 C-20.10217776 23.20010138 -20.11910901 20.66608089 -20.13232422 18.13134766 C-20.15555 16.95606255 -20.15555 16.95606255 -20.179245 15.7570343 C-20.18108808 9.73477833 -18.88296416 6.84599646 -14.96717834 2.44529724 C-10.15100351 -0.47410566 -5.53049875 -0.02423907 0 0 Z M4.16064453 24.54931641 C4.16064453 31.80931641 4.16064453 39.06931641 4.16064453 46.54931641 C34.52064453 46.54931641 64.88064453 46.54931641 96.16064453 46.54931641 C96.16064453 39.28931641 96.16064453 32.02931641 96.16064453 24.54931641 C65.80064453 24.54931641 35.44064453 24.54931641 4.16064453 24.54931641 Z M118.34814453 100.92431641 C117.6460083 101.47579346 116.94387207 102.02727051 116.22045898 102.59545898 C111.4840118 106.35443162 106.93245297 110.29840956 102.50439453 114.41650391 C100.02694962 116.67097878 97.46140231 118.76670456 94.84814453 120.86181641 C90.02229749 124.764874 85.45105748 128.8807303 80.92700195 133.12475586 C78.164764 135.71399537 75.36806843 138.23909917 72.49316406 140.703125 C67.9921547 144.63468559 63.79377811 148.82404635 59.60205078 153.08056641 C57.98304739 154.71221301 56.36390244 156.34371915 54.74462891 157.97509766 C52.23051414 160.51399774 49.71804505 163.05448371 47.20825195 165.59765625 C44.76069054 168.07563554 42.30676753 170.54717786 39.85205078 173.01806641 C39.11426895 173.76930786 38.37648712 174.52054932 37.61634827 175.29455566 C25.32337537 187.64567902 25.32337537 187.64567902 19.09814453 189.42431641 C10.42058942 186.83951276 5.11468206 177.86849641 -0.16357422 171.01025391 C-6.1327775 162.93608254 -6.1327775 162.93608254 -13.90185547 156.79931641 C-18.77102121 156.38491932 -21.9569114 158.02445451 -25.62841797 160.99853516 C-30.94098967 166.01856436 -35.83459646 171.77928587 -37.73779297 178.92041016 C-37.86086384 183.31782705 -36.55106132 185.65629778 -34.08935547 189.11181641 C-33.68177002 189.711875 -33.27418457 190.31193359 -32.85424805 190.93017578 C-28.17127424 197.71796627 -23.07989758 204.18681542 -17.83935547 210.54931641 C-17.36626953 211.12681641 -16.89318359 211.70431641 -16.40576172 212.29931641 C-0.33664565 233.13130252 -0.33664565 233.13130252 21.97314453 245.11962891 C30.11322251 243.66319339 35.29652261 235.15691945 39.78564453 228.79931641 C41.0015777 227.11426709 42.21772998 225.42937588 43.43408203 223.74462891 C44.04864258 222.88643555 44.66320312 222.02824219 45.29638672 221.14404297 C48.30067383 216.9625915 51.3545671 212.81799417 54.41064453 208.67431641 C54.99579834 207.88041504 55.58095215 207.08651367 56.18383789 206.26855469 C64.03366477 195.63602009 72.096169 185.25847812 80.71337891 175.23486328 C82.21634207 173.48444869 83.71248421 171.72838032 85.20751953 169.97119141 C89.69167435 164.7087596 94.19490026 159.4763388 98.84814453 154.36181641 C101.85878932 151.04848561 104.72629631 147.65989712 107.53564453 144.17431641 C110.78015859 140.16106731 114.14797551 136.32502461 117.66064453 132.54931641 C122.02358349 127.85830267 126.14448728 123.02592692 130.14501953 118.01806641 C131.92891963 115.8331345 133.79419589 113.79195795 135.72314453 111.73681641 C137.68153627 109.43926186 138.15987708 108.55273503 138.84814453 105.48681641 C137.88162701 101.35715065 136.27871393 99.40201819 133.16064453 96.54931641 C126.38226626 94.41967922 123.42566671 96.76036706 118.34814453 100.92431641 Z " fill="#336779" transform="translate(184.83935546875,63.45068359375)"/>
<path d="M0 0 C3.1043469 16.73728578 6.20426175 33.47538938 9.29986572 50.21429443 C9.76132706 52.70946831 10.22287291 55.20462656 10.68450928 57.69976807 C11.96793688 64.63717363 13.24949971 71.57491839 14.52810669 78.51321411 C14.92598175 80.67077954 15.32448015 82.82823011 15.72360229 84.98556519 C16.278354 87.98486133 16.83087881 90.9845592 17.3828125 93.984375 C17.54794846 94.87453812 17.71308441 95.76470123 17.88322449 96.68183899 C19 102.77159367 19 102.77159367 19 105 C14.56686551 104.39096678 11.01985298 102.63670345 7.125 100.55078125 C5.79723339 99.86063818 4.46909699 99.17120616 3.140625 98.48242188 C1.06278721 97.3969732 -1.01169967 96.3062588 -3.08007812 95.20288086 C-5.08701469 94.13592299 -7.10460464 93.09197363 -9.125 92.05078125 C-9.73972168 91.71548904 -10.35444336 91.38019684 -10.98779297 91.03474426 C-13.93811577 89.53341146 -15.51701838 88.88673253 -18.79101562 89.65454102 C-21.82889093 91.50486493 -23.41482911 93.74717853 -25.5 96.625 C-26.37288046 97.80365596 -27.24799016 98.98066337 -28.125 100.15625 C-28.81916016 101.09210938 -28.81916016 101.09210938 -29.52734375 102.046875 C-36.42117526 111.18988761 -43.78500866 119.99520365 -51.5859375 128.375 C-53.46611644 130.41946642 -55.27948171 132.48967539 -57.0859375 134.59765625 C-61.43266707 139.57986576 -66.07689869 144.26296384 -70.75048828 148.93579102 C-72.23893237 150.42641615 -73.71917277 151.92487017 -75.19921875 153.42382812 C-80.74883758 159.00543489 -86.45349267 164.17258289 -92.61474609 169.08959961 C-94.48816535 170.59006078 -96.29741214 172.11146285 -98.07421875 173.72265625 C-117.90329026 191.47693702 -142.05012411 205.77005803 -167 215 C-167.63502441 215.23557617 -168.27004883 215.47115234 -168.92431641 215.71386719 C-188.3682202 222.80737567 -209.21935648 227.15308758 -230 226 C-231.0202124 225.94634277 -231.0202124 225.94634277 -232.06103516 225.89160156 C-273.92035407 223.42558277 -312.15921978 204.23356221 -342.7265625 176.08984375 C-344.84630212 174.14128585 -347.00483469 172.25242667 -349.1875 170.375 C-359.56489006 161.30532983 -359.56489006 161.30532983 -361 157 C-356.16994305 158.42526271 -351.35386957 159.87918085 -346.5625 161.4296875 C-322.75501434 169.11951263 -299.50320464 172.62525176 -274.4375 171.75 C-273.74068115 171.72666595 -273.0438623 171.70333191 -272.32592773 171.67929077 C-245.19895832 170.72820691 -219.14136669 165.35914983 -194 155 C-193.20706543 154.67692871 -192.41413086 154.35385742 -191.59716797 154.02099609 C-167.72078492 144.16429872 -146.12687456 130.14751235 -126.1953125 113.796875 C-124.72933106 112.59696137 -123.24453696 111.41967891 -121.7421875 110.265625 C-113.30909977 103.75294338 -105.66890285 96.38032879 -98 89 C-97.39124023 88.41460449 -96.78248047 87.82920898 -96.15527344 87.22607422 C-89.73978622 81.02277237 -83.68431265 74.71876952 -78.140625 67.70703125 C-75.10226756 63.86472887 -71.91863008 60.145399 -68.75 56.41015625 C-66.48066565 53.48296819 -66.48066565 53.48296819 -66 50 C-69.61853434 45.52617573 -74.34858889 42.48353974 -79.0625 39.25 C-80.57391359 38.19934935 -82.08432324 37.14725306 -83.59375 36.09375 C-84.33625 35.57554687 -85.07875 35.05734375 -85.84375 34.5234375 C-90.64707106 31.12978675 -95.32480419 27.56720143 -100 24 C-97.27492307 21.27492307 -94.27019536 20.89500885 -90.62890625 20.0390625 C-89.8595575 19.85228943 -89.09020874 19.66551636 -88.29754639 19.4730835 C-85.72089529 18.84975673 -83.1418357 18.23711562 -80.5625 17.625 C-78.75470196 17.19133241 -76.94700535 16.75724183 -75.1394043 16.32275391 C-71.2210335 15.38283338 -67.30138888 14.44845209 -63.38085938 13.51757812 C-57.80405005 12.19306965 -52.230437 10.85552245 -46.65724182 9.51589966 C-42.01538938 8.40180673 -37.37193473 7.29451252 -32.72799683 6.18914795 C-30.45597383 5.64756851 -28.18442455 5.10399776 -25.9133606 4.55841064 C-22.71070108 3.79012487 -19.50606983 3.03066901 -16.30078125 2.2734375 C-15.34621033 2.04267517 -14.3916394 1.81191284 -13.40814209 1.57415771 C-8.84551434 0.50578121 -4.7242017 -0.28489124 0 0 Z " fill="#BC6FC2" transform="translate(436,205)"/>
<path d="M0 0 C0.598125 0.226875 1.19625 0.45375 1.8125 0.6875 C-0.1875 2.6875 -0.1875 2.6875 -2.25 3.5 C-4.42239089 4.53457748 -4.42239089 4.53457748 -4.875 7 C-4.978125 7.886875 -5.08125 8.77375 -5.1875 9.6875 C-5.43487915 10.78324341 -5.43487915 10.78324341 -5.68725586 11.90112305 C-6.29264693 15.27317197 -6.40524891 18.53221227 -6.50390625 21.95703125 C-6.5350779 22.97853523 -6.5350779 22.97853523 -6.56687927 24.02067566 C-6.63187878 26.18035508 -6.69102712 28.34014846 -6.75 30.5 C-6.7932325 31.97071456 -6.83684825 33.44141791 -6.88085938 34.91210938 C-6.98750859 38.50378717 -7.08891349 42.09559082 -7.1875 45.6875 C-10.64321397 46.83940466 -13.30799026 46.80757093 -16.95385742 46.80102539 C-17.63704544 46.80117142 -18.32023346 46.80131744 -19.02412415 46.8014679 C-21.28043807 46.80077169 -23.53666926 46.79299296 -25.79296875 46.78515625 C-27.35809789 46.78329103 -28.92322761 46.78186762 -30.48835754 46.78086853 C-34.60653293 46.77705152 -38.72467302 46.76722818 -42.84283447 46.75616455 C-47.04560875 46.74593291 -51.24838873 46.74136715 -55.45117188 46.73632812 C-63.69663078 46.72560519 -71.942061 46.70853854 -80.1875 46.6875 C-80.5175 46.0275 -80.8475 45.3675 -81.1875 44.6875 C-57.0975 44.6875 -33.0075 44.6875 -8.1875 44.6875 C-8.30601764 32.73575598 -8.30601764 32.73575598 -8.45776367 20.78442383 C-8.46653042 19.27946614 -8.47417391 17.77450131 -8.48046875 16.26953125 C-8.5034906 15.10955627 -8.5034906 15.10955627 -8.52697754 13.92614746 C-8.5297506 8.1849809 -7.14788993 5.24453034 -3.75 0.8125 C-2.1875 -0.3125 -2.1875 -0.3125 0 0 Z " fill="#3C6370" transform="translate(173.1875,65.3125)"/>
<path d="M0 0 C0.66 0.33 1.32 0.66 2 1 C-3.84245557 7.07057748 -9.78870284 12.62064508 -16.37109375 17.8828125 C-20.01054546 20.81384196 -23.51185831 23.89165597 -27 27 C-27.66 26.67 -28.32 26.34 -29 26 C-28.875 24.125 -28.875 24.125 -28 22 C-26.00428677 21.32060826 -24.00405227 20.65438441 -22 20 C-20.83333333 18.08333333 -20.83333333 18.08333333 -20 16 C-19.360625 15.525625 -18.72125 15.05125 -18.0625 14.5625 C-15.04668168 12.27778915 -13.66621365 9.3324273 -12 6 C-10.68 6.66 -9.36 7.32 -8 8 C-5.36 5.36 -2.72 2.72 0 0 Z " fill="#AE73B4" transform="translate(360,356)"/>
<path d="M0 0 C2.68359375 1.2421875 2.68359375 1.2421875 5.4375 2.875 C9.24890192 5.06321728 12.78805472 6.70401684 17 8 C17.66 8.66 18.32 9.32 19 10 C20.65249487 10.70105843 22.32367583 11.35800351 24 12 C27.00921651 13.31274546 30.00475069 14.65572689 33 16 C33 16.66 33 17.32 33 18 C28.56686551 17.39096678 25.01985298 15.63670345 21.125 13.55078125 C19.79723339 12.86063818 18.46909699 12.17120616 17.140625 11.48242188 C15.06278721 10.3969732 12.98830033 9.3062588 10.91992188 8.20288086 C8.91298531 7.13592299 6.89539536 6.09197363 4.875 5.05078125 C4.26027832 4.71548904 3.64555664 4.38019684 3.01220703 4.03474426 C0.01247131 2.50826668 -1.49365598 1.8651718 -4.8046875 2.74682617 C-5.89136719 3.36714722 -5.89136719 3.36714722 -7 4 C-7.99 4.495 -7.99 4.495 -9 5 C-6.8811251 0.30820558 -5.15366274 -0.45975121 0 0 Z " fill="#AB75B0" transform="translate(422,292)"/>
<path d="M0 0 C0.33 0.66 0.66 1.32 1 2 C0.67 2.66 0.34 3.32 0 4 C-0.66 4 -1.32 4 -2 4 C-4.79347192 10.86577417 -5.46479022 17.00913065 -5.51171875 24.37890625 C-5.52966995 25.43158188 -5.54762115 26.48425751 -5.56611633 27.5688324 C-5.61989126 30.90001532 -5.65400969 34.23105769 -5.6875 37.5625 C-5.72070202 39.8340038 -5.75519431 42.10548912 -5.79101562 44.37695312 C-5.87559852 49.91784258 -5.94408596 55.458751 -6 61 C-6.33 61 -6.66 61 -7 61 C-7.10178049 54.02584356 -7.17162496 47.05188011 -7.21972656 40.07714844 C-7.23978826 37.70663291 -7.26704426 35.33616655 -7.30175781 32.96582031 C-7.35051418 29.55000649 -7.37302399 26.13484945 -7.390625 22.71875 C-7.41127014 21.66635132 -7.43191528 20.61395264 -7.45318604 19.52966309 C-7.45535401 12.3507666 -6.45023509 6.62061548 -1.36480713 1.28405762 C-0.6892276 0.6484491 -0.6892276 0.6484491 0 0 Z " fill="#3D616D" transform="translate(80,116)"/>
<path d="M0 0 C2.9375 1.1875 2.9375 1.1875 3.9375 3.1875 C4.5975 3.1875 5.2575 3.1875 5.9375 3.1875 C6.2675 2.5275 6.5975 1.8675 6.9375 1.1875 C10.8975 1.1875 14.8575 1.1875 18.9375 1.1875 C11.35808166 4.97720917 1.39163225 6.33268126 -7.0625 5.1875 C-7.7225 4.5275 -8.3825 3.8675 -9.0625 3.1875 C-8.0725 2.5275 -7.0825 1.8675 -6.0625 1.1875 C-5.7325 0.8575 -5.4025 0.5275 -5.0625 0.1875 C-3.0625 -0.8125 -3.0625 -0.8125 0 0 Z " fill="#B171B6" transform="translate(227.0625,424.8125)"/>
<path d="M0 0 C10.55808656 3.07517084 10.55808656 3.07517084 15 5 C15 5.66 15 6.32 15 7 C10.545 6.01 10.545 6.01 6 5 C6.5775 5.48210937 7.155 5.96421875 7.75 6.4609375 C8.4925 7.09257812 9.235 7.72421875 10 8.375 C10.7425 9.00148438 11.485 9.62796875 12.25 10.2734375 C12.8275 10.84320313 13.405 11.41296875 14 12 C14 12.66 14 13.32 14 14 C14.8971875 14.433125 14.8971875 14.433125 15.8125 14.875 C18 16 18 16 21 18 C20.67 18.99 20.34 19.98 20 21 C17.59850306 18.79776179 15.20488935 16.58712559 12.8125 14.375 C12.13896484 13.75753906 11.46542969 13.14007813 10.77148438 12.50390625 C6.85689806 8.87575308 3.2676881 5.22578694 0 1 C0 0.67 0 0.34 0 0 Z " fill="#AA6CAE" transform="translate(75,362)"/>
<path d="M0 0 C0 3.73651117 -0.80656203 4.22509214 -3.32421875 6.87109375 C-4.02353516 7.61037109 -4.72285156 8.34964844 -5.44335938 9.11132812 C-6.18392578 9.87896484 -6.92449219 10.64660156 -7.6875 11.4375 C-8.40873047 12.20126953 -9.12996094 12.96503906 -9.87304688 13.75195312 C-13.39749244 17.45020696 -16.87930965 20.95215211 -21 24 C-19.01286647 19.02642301 -14.90616922 16.05215593 -11.01953125 12.53515625 C-8.66690535 10.18516075 -8.66690535 10.18516075 -9.26171875 7.30859375 C-9.62716797 6.16583984 -9.62716797 6.16583984 -10 5 C-9.67 4.34 -9.34 3.68 -9 3 C-6.03 3.495 -6.03 3.495 -3 4 C-3 3.34 -3 2.68 -3 2 C-2.01 1.34 -1.02 0.68 0 0 Z " fill="#AD72B4" transform="translate(388,327)"/>
<path d="M0 0 C0.33951619 1.56116819 0.67132544 3.12401338 1 4.6875 C1.185625 5.55761719 1.37125 6.42773438 1.5625 7.32421875 C1.98972047 9.93712964 2.07616201 12.35813038 2 15 C0.5 13.875 0.5 13.875 -1 12 C-1.04165763 10.00043389 -1.04165763 7.99956611 -1 6 C-1.66 5.01 -2.32 4.02 -3 3 C-7.42671473 3.38144027 -11.64224079 3.78262275 -15.875 5.1875 C-16.90625 5.455625 -17.9375 5.72375 -19 6 C-19.99 5.34 -20.98 4.68 -22 4 C-19.4604163 3.32438628 -16.91881165 2.65934172 -14.375 2 C-13.66214844 1.80921875 -12.94929688 1.6184375 -12.21484375 1.421875 C-8.04151456 0.34982713 -4.34821249 -0.21946814 0 0 Z " fill="#A86FAE" transform="translate(436,205)"/>
<path d="M0 0 C-0.99 0.66 -1.98 1.32 -3 2 C-3 2.66 -3 3.32 -3 4 C0.11257569 4 2.10765685 3.82638376 5 3 C4.67 5.31 4.34 7.62 4 10 C-1.08938811 8.40956621 -4.87456643 5.2553049 -9 2 C-5.96271914 -1.03728086 -4.06215635 -1.35405212 0 0 Z " fill="#B273B9" transform="translate(345,227)"/>
<path d="M0 0 C0.66 0 1.32 0 2 0 C0.92776619 2.22694714 -0.17554489 4.25980644 -1.5625 6.3125 C-3.35964023 9.67237086 -3.86636898 12.1915158 -4 16 C-2.69280737 19.36878771 -2.69280737 19.36878771 -1 22 C-2.65 21.67 -4.3 21.34 -6 21 C-6 6 -6 6 -4.125 3.9375 C-3.42375 3.298125 -2.7225 2.65875 -2 2 C-1.34 1.34 -0.68 0.68 0 0 Z " fill="#32626E" transform="translate(152,230)"/>
<path d="M0 0 C0.90492188 0.02320313 1.80984375 0.04640625 2.7421875 0.0703125 C3.65226562 0.08835937 4.56234375 0.10640625 5.5 0.125 C6.19867188 0.14820313 6.89734375 0.17140625 7.6171875 0.1953125 C3.89411558 3.51024017 -0.37226499 4.80781523 -5.0078125 6.3828125 C-5.78382813 6.65544922 -6.55984375 6.92808594 -7.359375 7.20898438 C-13.09433741 9.1953125 -13.09433741 9.1953125 -15.3828125 9.1953125 C-15.0528125 8.2053125 -14.7228125 7.2153125 -14.3828125 6.1953125 C-13.3 6.040625 -13.3 6.040625 -12.1953125 5.8828125 C-7.59090447 4.75729054 -4.28700691 0.35139401 0 0 Z " fill="#3A6472" transform="translate(239.3828125,353.8046875)"/>
<path d="M0 0 C0.66 0.33 1.32 0.66 2 1 C-9.52164009 14.6332574 -9.52164009 14.6332574 -15 21 C-15.33 20.01 -15.66 19.02 -16 18 C-15.34 17.566875 -14.68 17.13375 -14 16.6875 C-13.34 16.130625 -12.68 15.57375 -12 15 C-12 14.01 -12 13.02 -12 12 C-10.50390625 10.5 -10.50390625 10.5 -8.5625 9 C-5.49568071 6.62300315 -5.49568071 6.62300315 -4 3 C-3.34 3 -2.68 3 -2 3 C-2 2.34 -2 1.68 -2 1 C-1.34 0.67 -0.68 0.34 0 0 Z " fill="#A875B0" transform="translate(405,306)"/>
<path d="M0 0 C0.33 1.32 0.66 2.64 1 4 C-2.10723617 7.86050555 -5.40942232 10.16376893 -10 12 C-10.66 11.67 -11.32 11.34 -12 11 C-8.04 7.37 -4.08 3.74 0 0 Z " fill="#A573B1" transform="translate(326,305)"/>
<path d="M0 0 C0.99 1.32 1.98 2.64 3 4 C2.34 4 1.68 4 1 4 C0.73067479 8.65052872 0.73067479 8.65052872 2 13 C-2.455 16.465 -2.455 16.465 -7 20 C-7 16.39750384 -6.43493434 16.13934361 -4 13.6875 C-1.66897273 11.09320377 -1.04370398 10.32465815 -0.5625 6.75 C-0.93604646 3.91978081 -0.93604646 3.91978081 -2 1 C-1.34 0.67 -0.68 0.34 0 0 Z " fill="#34626E" transform="translate(323,162)"/>
<path d="M0 0 C0 3 0 3 -1.875 5.75 C-5.82905526 8.59691979 -7.92499026 8.43779998 -12.6171875 7.73046875 C-16.22454447 6.62460686 -17.72468075 4.95791503 -20 2 C-14.25 3.875 -14.25 3.875 -12 5 C-8.98736238 5.41081422 -6.88544367 5.57293414 -4.2734375 3.8828125 C-2.79889789 2.64587643 -1.39371212 1.32734487 0 0 Z " fill="#36606D" transform="translate(216,302)"/>
<path d="M0 0 C6.93 0.495 6.93 0.495 14 1 C14 1.33 14 1.66 14 2 C12.02 2 10.04 2 8 2 C7.67 3.32 7.34 4.64 7 6 C4.625 5.8125 4.625 5.8125 2 5 C1.34 3.35 0.68 1.7 0 0 Z " fill="#B370BB" transform="translate(128,376)"/>
<path d="M0 0 C-0.63808594 0.27714844 -1.27617187 0.55429687 -1.93359375 0.83984375 C-2.75988281 1.20207031 -3.58617187 1.56429688 -4.4375 1.9375 C-5.26121094 2.29714844 -6.08492187 2.65679687 -6.93359375 3.02734375 C-8.94410117 3.83122323 -8.94410117 3.83122323 -10 5 C-12.34987262 5.23527773 -14.70556039 5.41386417 -17.0625 5.5625 C-18.35285156 5.64628906 -19.64320313 5.73007812 -20.97265625 5.81640625 C-21.97167969 5.87699219 -22.97070312 5.93757813 -24 6 C-19.78128622 3.76827546 -15.45594079 2.58257126 -10.875 1.3125 C-9.63943359 0.95575195 -9.63943359 0.95575195 -8.37890625 0.59179688 C-7.59128906 0.37201172 -6.80367187 0.15222656 -5.9921875 -0.07421875 C-5.27401855 -0.27619873 -4.55584961 -0.47817871 -3.81591797 -0.6862793 C-2 -1 -2 -1 0 0 Z " fill="#A474AB" transform="translate(228,367)"/>
<path d="M0 0 C-0.33 1.65 -0.66 3.3 -1 5 C-7.75 5.125 -7.75 5.125 -10 4 C-10 3.34 -10 2.68 -10 2 C-3.375 -1.125 -3.375 -1.125 0 0 Z " fill="#AF71B9" transform="translate(245,361)"/>
<path d="M0 0 C0.66 0.33 1.32 0.66 2 1 C2 1.66 2 2.32 2 3 C-0.97 4.65 -3.94 6.3 -7 8 C-6.67 9.32 -6.34 10.64 -6 12 C-6.66 12 -7.32 12 -8 12 C-8 11.34 -8 10.68 -8 10 C-9.32 9.67 -10.64 9.34 -12 9 C-8.04 6.03 -4.08 3.06 0 0 Z " fill="#A86EB2" transform="translate(306,322)"/>
<path d="M0 0 C0.99 0.33 1.98 0.66 3 1 C0.71643754 3.34138543 -1.57813374 5.67166982 -3.875 8 C-4.52597656 8.66773438 -5.17695313 9.33546875 -5.84765625 10.0234375 C-6.47285156 10.65507812 -7.09804688 11.28671875 -7.7421875 11.9375 C-8.3182373 12.52402344 -8.89428711 13.11054688 -9.48779297 13.71484375 C-11 15 -11 15 -13 15 C-13.33 14.01 -13.66 13.02 -14 12 C-13.2575 11.773125 -12.515 11.54625 -11.75 11.3125 C-8.42302592 9.72462601 -7.18783693 7.93990588 -5 5 C-3.35216394 3.31471312 -1.68997323 1.64302953 0 0 Z " fill="#416773" transform="translate(335,288)"/>
<path d="M0 0 C7.81308411 3.72897196 7.81308411 3.72897196 10 6 C10.5625 8.875 10.5625 8.875 10 12 C7.5 14.875 7.5 14.875 5 17 C5.309375 16.4225 5.61875 15.845 5.9375 15.25 C6.288125 14.5075 6.63875 13.765 7 13 C7.309375 12.360625 7.61875 11.72125 7.9375 11.0625 C8.24126547 8.68515712 8.24126547 8.68515712 5.75 6.375 C3.04909708 3.94315075 3.04909708 3.94315075 0 2 C0 1.34 0 0.68 0 0 Z " fill="#A674AC" transform="translate(362,246)"/>
<path d="M0 0 C0.99 0.33 1.98 0.66 3 1 C-0.96 4.3 -4.92 7.6 -9 11 C-9.99 10.34 -10.98 9.68 -12 9 C-9.69 7.68 -7.38 6.36 -5 5 C-5 4.34 -5 3.68 -5 3 C-4.34 3 -3.68 3 -3 3 C-2.67 2.34 -2.34 1.68 -2 1 C-1.34 0.67 -0.68 0.34 0 0 Z " fill="#36626D" transform="translate(302,163)"/>
<path d="M0 0 C0.66 0.33 1.32 0.66 2 1 C1.01 2.32 0.02 3.64 -1 5 C-2.32 4.67 -3.64 4.34 -5 4 C-5 4.66 -5 5.32 -5 6 C-7 7.625 -7 7.625 -9 9 C-9.66 8.67 -10.32 8.34 -11 8 C-11 7.34 -11 6.68 -11 6 C-9.21385682 4.96953278 -7.42089982 3.95086764 -5.625 2.9375 C-4.62726563 2.36902344 -3.62953125 1.80054688 -2.6015625 1.21484375 C-1.74304688 0.81394531 -0.88453125 0.41304688 0 0 Z " fill="#A572AE" transform="translate(269,347)"/>
<path d="M0 0 C0.99 0.33 1.98 0.66 3 1 C-0.96 4.96 -4.92 8.92 -9 13 C-9.33 12.01 -9.66 11.02 -10 10 C-9.0925 9.278125 -8.185 8.55625 -7.25 7.8125 C-4.4298006 5.47347206 -2.19093342 2.94933345 0 0 Z " fill="#38606D" transform="translate(239,219)"/>
<path d="M0 0 C-3.54082916 2.1244975 -6.94991891 2.46508363 -11 3 C-11.33 3.33 -11.66 3.66 -12 4 C-13.66617115 4.04063832 -15.33388095 4.042721 -17 4 C-17 3.34 -17 2.68 -17 2 C-14.91952703 1.4678559 -12.83547707 0.94968214 -10.75 0.4375 C-9.58984375 0.14746094 -8.4296875 -0.14257812 -7.234375 -0.44140625 C-4.27909017 -0.95179964 -2.75565899 -1.02996165 0 0 Z " fill="#A472AE" transform="translate(363,223)"/>
<path d="M0 0 C-5.78217394 3.05498079 -9.5589964 4.64451156 -16 3 C-11.08294543 0.13171817 -5.53605896 -1.7423757 0 0 Z " fill="#A371AC" transform="translate(379,219)"/>
<path d="M0 0 C7.26 0 14.52 0 22 0 C17.93480981 2.03259509 14.8512521 2.45340514 10.4375 2.6875 C9.42913086 2.75807617 9.42913086 2.75807617 8.40039062 2.83007812 C5.25457613 3.02063888 3.02005632 3.00668544 0 2 C0 1.34 0 0.68 0 0 Z " fill="#CD86D4" transform="translate(142,377)"/>
<path d="M0 0 C2.66666667 0.66666667 5.33333333 1.33333333 8 2 C3.05 4.475 3.05 4.475 -2 7 C-2.33 6.34 -2.66 5.68 -3 5 C-2.34 5 -1.68 5 -1 5 C-1.33 4.01 -1.66 3.02 -2 2 C-1.34 2 -0.68 2 0 2 C0 1.34 0 0.68 0 0 Z " fill="#3C6374" transform="translate(268,338)"/>
<path d="M0 0 C0.33 1.32 0.66 2.64 1 4 C-0.65234375 6.359375 -0.65234375 6.359375 -2.9375 8.75 C-4.06478516 9.94882812 -4.06478516 9.94882812 -5.21484375 11.171875 C-5.80394531 11.77515625 -6.39304688 12.3784375 -7 13 C-7.66 12.67 -8.32 12.34 -9 12 C-6.03 8.04 -3.06 4.08 0 0 Z " fill="#36606E" transform="translate(243,266)"/>
<path d="M0 0 C2.64 0 5.28 0 8 0 C4.57452501 2.28364999 1.24343863 3.13400707 -2.6875 4.125 C-3.38939453 4.30675781 -4.09128906 4.48851562 -4.81445312 4.67578125 C-6.54166268 5.12227079 -8.27066456 5.5618166 -10 6 C-10 5.34 -10 4.68 -10 4 C-6.7 3.34 -3.4 2.68 0 2 C0 1.34 0 0.68 0 0 Z " fill="#3F6670" transform="translate(341,220)"/>
<path d="M0 0 C0.33 0.99 0.66 1.98 1 3 C-0.07107117 3.86949317 -1.15745944 4.72014205 -2.25 5.5625 C-2.85328125 6.03816406 -3.4565625 6.51382812 -4.078125 7.00390625 C-6 8 -6 8 -10 7 C-6.7 4.69 -3.4 2.38 0 0 Z " fill="#A373B3" transform="translate(288,335)"/>
<path d="M0 0 C0 3 0 3 -1.375 4.6875 C-3 6 -3 6 -5 6 C-5 6.66 -5 7.32 -5 8 C-5.99 8.66 -6.98 9.32 -8 10 C-8.99 9.67 -9.98 9.34 -11 9 C-8.23352293 6.02859871 -5.50322987 4.02818571 -2 2 C-1.34 1.34 -0.68 0.68 0 0 Z " fill="#AD72B5" transform="translate(339,295)"/>
<path d="M0 0 C-3.43535849 3.17175425 -6.15330091 3.45766505 -10.75 3.6875 C-11.92046875 3.75324219 -13.0909375 3.81898438 -14.296875 3.88671875 C-15.18890625 3.92410156 -16.0809375 3.96148437 -17 4 C-17 3.34 -17 2.68 -17 2 C-15.10507994 1.66151348 -13.20901534 1.32943089 -11.3125 1 C-9.72888672 0.7215625 -9.72888672 0.7215625 -8.11328125 0.4375 C-5.35095938 0.04931926 -2.78257957 -0.08259976 0 0 Z " fill="#A374AE" transform="translate(204,373)"/>
<path d="M0 0 C7.48291572 6.15034169 7.48291572 6.15034169 10 10 C0.9 5.8 0.9 5.8 -1 2 C-0.67 1.34 -0.34 0.68 0 0 Z " fill="#3B626E" transform="translate(179,288)"/>
<path d="M0 0 C0.33 0 0.66 0 1 0 C3.29612756 11.52164009 3.29612756 11.52164009 3 17 C-0.21428123 11.03062058 -1.35218093 6.76090464 0 0 Z " fill="#AC72B2" transform="translate(450,287)"/>
<path d="M0 0 C-0.99 0.66 -1.98 1.32 -3 2 C-2.67 3.32 -2.34 4.64 -2 6 C-5.65316671 4.75023244 -6.78065836 4.32901247 -9 1 C-3.375 -1.125 -3.375 -1.125 0 0 Z " fill="#8D6AA5" transform="translate(345,227)"/>
<path d="M0 0 C1 3 1 3 1 5 C-2.96 6.98 -2.96 6.98 -7 9 C-5.04783565 5.09567131 -3.12613393 2.96160056 0 0 Z " fill="#35626E" transform="translate(307,190)"/>
<path d="M0 0 C3.63 0 7.26 0 11 0 C11 0.66 11 1.32 11 2 C12.32 2.33 13.64 2.66 15 3 C13.24929483 2.88529863 11.49942464 2.75780972 9.75 2.625 C8.77546875 2.55539062 7.8009375 2.48578125 6.796875 2.4140625 C4 2 4 2 0 0 Z " fill="#AC75AF" transform="translate(177,426)"/>
<path d="M0 0 C0.99 0.33 1.98 0.66 3 1 C0.36 3.64 -2.28 6.28 -5 9 C-5 4.61031544 -2.87194899 3.23094261 0 0 Z " fill="#375F6B" transform="translate(254,204)"/>
<path d="M0 0 C3.63 0 7.26 0 11 0 C11 0.99 11 1.98 11 3 C7.37 2.34 3.74 1.68 0 1 C0 0.67 0 0.34 0 0 Z " fill="#3E666F" transform="translate(117,364)"/>
<path d="M0 0 C3.3125 -0.25 3.3125 -0.25 7 0 C8.9375 2 8.9375 2 10 4 C5.78087253 3.5205537 3.20336822 2.83374881 0 0 Z " fill="#37636D" transform="translate(89,354)"/>
<path d="M0 0 C4 2 4 2 6 4 C6.66 4.33 7.32 4.66 8 5 C8.33 5.66 8.66 6.32 9 7 C8.01 7.33 7.02 7.66 6 8 C4.02 5.36 2.04 2.72 0 0 Z " fill="#346069" transform="translate(189,240)"/>
<path d="M0 0 C2 2 2 2 2 4 C1.34 4 0.68 4 0 4 C-0.33 4.99 -0.66 5.98 -1 7 C-1.99 6.34 -2.98 5.68 -4 5 C-2.68 3.35 -1.36 1.7 0 0 Z " fill="#35606E" transform="translate(226,289)"/>
<path d="M0 0 C0.66 0.33 1.32 0.66 2 1 C-0.46153846 5.8 -0.46153846 5.8 -3.1875 6.8125 C-3.785625 6.874375 -4.38375 6.93625 -5 7 C-3.70700306 4.11562221 -2.34058637 2.12780579 0 0 Z " fill="#376069" transform="translate(279,222)"/>
<path d="M0 0 C0.33 0.66 0.66 1.32 1 2 C2.32 2.33 3.64 2.66 5 3 C2.03 3.66 -0.94 4.32 -4 5 C-4.33 4.34 -4.66 3.68 -5 3 C-3.68 3 -2.36 3 -1 3 C-0.67 2.01 -0.34 1.02 0 0 Z " fill="#39646F" transform="translate(372,210)"/>
</svg>
